<svg width="260" height="55" viewBox="0 0 260 55" fill="none" xmlns="http://www.w3.org/2000/svg">
<g clip-path="url(#clip0)">
<path d="M61.3237 15.5674C60.6971 15.5674 60.2119 15.8037 59.8682 16.2764C59.5244 16.7454 59.3525 17.4007 59.3525 18.2422C59.3525 19.9932 60.0096 20.8687 61.3237 20.8687C61.8752 20.8687 62.543 20.7308 63.3271 20.4551V21.8516C62.6826 22.1201 61.9629 22.2544 61.168 22.2544C60.0257 22.2544 59.152 21.9089 58.5469 21.2178C57.9417 20.5231 57.6392 19.5277 57.6392 18.2314C57.6392 17.415 57.7878 16.7007 58.085 16.0884C58.3822 15.4725 58.8083 15.0016 59.3633 14.6758C59.9219 14.3464 60.5754 14.1816 61.3237 14.1816C62.0864 14.1816 62.8527 14.366 63.6226 14.7349L63.0854 16.0884C62.7918 15.9487 62.4964 15.827 62.1992 15.7231C61.902 15.6193 61.6102 15.5674 61.3237 15.5674ZM72.3504 18.21C72.3504 19.5098 72.0281 20.5088 71.3836 21.207C70.739 21.9053 69.8152 22.2544 68.6121 22.2544C67.409 22.2544 66.4851 21.9053 65.8406 21.207C65.1961 20.5088 64.8738 19.5062 64.8738 18.1992C64.8738 16.8923 65.1961 15.895 65.8406 15.2075C66.4887 14.5164 67.4161 14.1709 68.6228 14.1709C69.8295 14.1709 70.7516 14.5182 71.3889 15.2129C72.0299 15.9076 72.3504 16.9066 72.3504 18.21ZM66.6194 18.21C66.6194 19.0872 66.7859 19.7479 67.1189 20.1919C67.4519 20.6359 67.9497 20.8579 68.6121 20.8579C69.9405 20.8579 70.6048 19.9753 70.6048 18.21C70.6048 16.4411 69.9441 15.5566 68.6228 15.5566C67.9604 15.5566 67.4609 15.7804 67.1243 16.228C66.7877 16.672 66.6194 17.3327 66.6194 18.21ZM75.8629 17.3076H76.5181C77.5422 17.3076 78.3336 17.5153 78.8921 17.9307C79.4507 18.346 79.73 18.9333 79.73 19.6924C79.73 21.3288 78.6487 22.147 76.4859 22.147H74.1978V14.2944H79.1607V15.6694H75.8629V17.3076ZM75.8629 20.7827H76.4214C76.9836 20.7827 77.3954 20.6932 77.6568 20.5142C77.9182 20.3315 78.0489 20.0576 78.0489 19.6924C78.0489 19.3307 77.9164 19.0711 77.6514 18.9136C77.3865 18.7524 76.9317 18.6719 76.2872 18.6719H75.8629V20.7827ZM83.1082 17.9897H83.6561C84.1681 17.9897 84.5513 17.8895 84.8055 17.689C85.0597 17.4849 85.1869 17.1895 85.1869 16.8027C85.1869 16.4124 85.0794 16.1242 84.8646 15.938C84.6533 15.7518 84.3203 15.6587 83.8656 15.6587H83.1082V17.9897ZM86.868 16.7437C86.868 17.5887 86.603 18.235 86.0731 18.6826C85.5467 19.1302 84.7966 19.354 83.8226 19.354H83.1082V22.147H81.4432V14.2944H83.9515C84.904 14.2944 85.6273 14.5003 86.1214 14.9121C86.6191 15.3203 86.868 15.9308 86.868 16.7437ZM93.3776 22.147L92.8082 20.2778H89.9454L89.3761 22.147H87.5821L90.3536 14.2622H92.3893L95.1715 22.147H93.3776ZM92.4108 18.8813C91.8844 17.1877 91.5872 16.2298 91.5192 16.0078C91.4547 15.7858 91.4082 15.6104 91.3795 15.4814C91.2613 15.9398 90.923 17.0731 90.3644 18.8813H92.4108ZM99.4145 22.147H97.7494V15.6802H95.6171V14.2944H101.547V15.6802H99.4145V22.147ZM108.507 19.6924C108.507 21.3288 107.426 22.147 105.263 22.147H102.975V14.2944H104.64V17.3076H105.296C106.32 17.3076 107.111 17.5153 107.67 17.9307C108.228 18.346 108.507 18.9333 108.507 19.6924ZM104.64 20.7827H105.199C105.761 20.7827 106.173 20.6932 106.434 20.5142C106.696 20.3315 106.826 20.0576 106.826 19.6924C106.826 19.3307 106.694 19.0711 106.429 18.9136C106.164 18.7524 105.709 18.6719 105.065 18.6719H104.64V20.7827ZM114.963 17.3076H115.618C116.642 17.3076 117.434 17.5153 117.992 17.9307C118.551 18.346 118.83 18.9333 118.83 19.6924C118.83 21.3288 117.749 22.147 115.586 22.147H113.298V14.2944H118.261V15.6694H114.963V17.3076ZM114.963 20.7827H115.522C116.084 20.7827 116.496 20.6932 116.757 20.5142C117.018 20.3315 117.149 20.0576 117.149 19.6924C117.149 19.3307 117.017 19.0711 116.752 18.9136C116.487 18.7524 116.032 18.6719 115.387 18.6719H114.963V20.7827ZM122.209 17.9897H122.756C123.268 17.9897 123.652 17.8895 123.906 17.689C124.16 17.4849 124.287 17.1895 124.287 16.8027C124.287 16.4124 124.18 16.1242 123.965 15.938C123.754 15.7518 123.421 15.6587 122.966 15.6587H122.209V17.9897ZM125.968 16.7437C125.968 17.5887 125.703 18.235 125.173 18.6826C124.647 19.1302 123.897 19.354 122.923 19.354H122.209V22.147H120.543V14.2944H123.052C124.004 14.2944 124.728 14.5003 125.222 14.9121C125.719 15.3203 125.968 15.9308 125.968 16.7437ZM132.478 22.147L131.908 20.2778H129.046L128.476 22.147H126.682L129.454 14.2622H131.49L134.272 22.147H132.478ZM131.511 18.8813C130.985 17.1877 130.687 16.2298 130.619 16.0078C130.555 15.7858 130.508 15.6104 130.48 15.4814C130.362 15.9398 130.023 17.0731 129.465 18.8813H131.511ZM138.821 15.5674C138.194 15.5674 137.709 15.8037 137.365 16.2764C137.022 16.7454 136.85 17.4007 136.85 18.2422C136.85 19.9932 137.507 20.8687 138.821 20.8687C139.372 20.8687 140.04 20.7308 140.824 20.4551V21.8516C140.18 22.1201 139.46 22.2544 138.665 22.2544C137.523 22.2544 136.649 21.9089 136.044 21.2178C135.439 20.5231 135.136 19.5277 135.136 18.2314C135.136 17.415 135.285 16.7007 135.582 16.0884C135.879 15.4725 136.305 15.0016 136.86 14.6758C137.419 14.3464 138.073 14.1816 138.821 14.1816C139.584 14.1816 140.35 14.366 141.12 14.7349L140.583 16.0884C140.289 15.9487 139.994 15.827 139.696 15.7231C139.399 15.6193 139.107 15.5674 138.821 15.5674ZM148.934 22.147H147.275V15.6802H145.352L145.266 16.3999C145.044 18.2297 144.847 19.5151 144.675 20.2563C144.507 20.994 144.26 21.5132 143.934 21.814C143.608 22.1147 143.168 22.2616 142.613 22.2544C142.312 22.2544 142.047 22.215 141.818 22.1362V20.772C142.025 20.8436 142.221 20.8794 142.403 20.8794C142.593 20.8794 142.743 20.7935 142.854 20.6216C142.965 20.4461 143.069 20.1239 143.166 19.6548C143.266 19.1821 143.397 18.4105 143.558 17.3398C143.723 16.2656 143.862 15.2505 143.977 14.2944H148.934V22.147ZM155.659 22.147H151.136V14.2944H155.659V15.6587H152.801V17.3828H155.46V18.7471H152.801V20.772H155.659V22.147ZM160.552 22.147H158.887V15.6802H156.754V14.2944H162.684V15.6802H160.552V22.147ZM170.525 15.5674C169.899 15.5674 169.414 15.8037 169.07 16.2764C168.726 16.7454 168.554 17.4007 168.554 18.2422C168.554 19.9932 169.211 20.8687 170.525 20.8687C171.077 20.8687 171.745 20.7308 172.529 20.4551V21.8516C171.884 22.1201 171.165 22.2544 170.37 22.2544C169.227 22.2544 168.354 21.9089 167.749 21.2178C167.143 20.5231 166.841 19.5277 166.841 18.2314C166.841 17.415 166.989 16.7007 167.287 16.0884C167.584 15.4725 168.01 15.0016 168.565 14.6758C169.124 14.3464 169.777 14.1816 170.525 14.1816C171.288 14.1816 172.054 14.366 172.824 14.7349L172.287 16.0884C171.993 15.9487 171.698 15.827 171.401 15.7231C171.104 15.6193 170.812 15.5674 170.525 15.5674ZM181.552 18.21C181.552 19.5098 181.23 20.5088 180.585 21.207C179.941 21.9053 179.017 22.2544 177.814 22.2544C176.611 22.2544 175.687 21.9053 175.042 21.207C174.398 20.5088 174.075 19.5062 174.075 18.1992C174.075 16.8923 174.398 15.895 175.042 15.2075C175.69 14.5164 176.618 14.1709 177.824 14.1709C179.031 14.1709 179.953 14.5182 180.591 15.2129C181.232 15.9076 181.552 16.9066 181.552 18.21ZM175.821 18.21C175.821 19.0872 175.988 19.7479 176.321 20.1919C176.654 20.6359 177.151 20.8579 177.814 20.8579C179.142 20.8579 179.806 19.9753 179.806 18.21C179.806 16.4411 179.146 15.5566 177.824 15.5566C177.162 15.5566 176.663 15.7804 176.326 16.228C175.989 16.672 175.821 17.3327 175.821 18.21ZM189.812 15.5674C189.186 15.5674 188.701 15.8037 188.357 16.2764C188.013 16.7454 187.841 17.4007 187.841 18.2422C187.841 19.9932 188.498 20.8687 189.812 20.8687C190.364 20.8687 191.032 20.7308 191.816 20.4551V21.8516C191.171 22.1201 190.451 22.2544 189.657 22.2544C188.514 22.2544 187.641 21.9089 187.035 21.2178C186.43 20.5231 186.128 19.5277 186.128 18.2314C186.128 17.415 186.276 16.7007 186.574 16.0884C186.871 15.4725 187.297 15.0016 187.852 14.6758C188.41 14.3464 189.064 14.1816 189.812 14.1816C190.575 14.1816 191.341 14.366 192.111 14.7349L191.574 16.0884C191.28 15.9487 190.985 15.827 190.688 15.7231C190.391 15.6193 190.099 15.5674 189.812 15.5674ZM200.114 22.147H198.223L195.377 18.167V22.147H193.712V14.2944H195.377V18.0972L198.191 14.2944H199.963L197.101 18.0649L200.114 22.147ZM201.322 14.2944H202.821V18.0864L202.799 19.1016L202.745 20.2563H202.778L206.403 14.2944H208.396V22.147H206.913V18.3765C206.913 17.8716 206.946 17.1232 207.01 16.1313H206.967L203.326 22.147H201.322V14.2944ZM209.663 20.7612H210.27C210.789 19.7228 211.199 18.6862 211.5 17.6514C211.801 16.613 212.025 15.494 212.172 14.2944H216.748V20.7612H217.795V24.4351H216.189V22.147H211.269V24.4351H209.663V20.7612ZM213.493 15.6802C213.378 16.5002 213.187 17.3685 212.918 18.2852C212.653 19.2018 212.354 20.0272 212.021 20.7612H215.088V15.6802H213.493ZM225.631 22.147H223.741L220.894 18.167V22.147H219.229V14.2944H220.894V18.0972L223.708 14.2944H225.481L222.618 18.0649L225.631 22.147ZM233.967 18.21C233.967 19.5098 233.645 20.5088 233 21.207C232.356 21.9053 231.432 22.2544 230.229 22.2544C229.026 22.2544 228.102 21.9053 227.457 21.207C226.813 20.5088 226.49 19.5062 226.49 18.1992C226.49 16.8923 226.813 15.895 227.457 15.2075C228.105 14.5164 229.033 14.1709 230.239 14.1709C231.446 14.1709 232.368 14.5182 233.006 15.2129C233.647 15.9076 233.967 16.9066 233.967 18.21ZM228.236 18.21C228.236 19.0872 228.403 19.7479 228.736 20.1919C229.069 20.6359 229.566 20.8579 230.229 20.8579C231.557 20.8579 232.221 19.9753 232.221 18.21C232.221 16.4411 231.561 15.5566 230.239 15.5566C229.577 15.5566 229.078 15.7804 228.741 16.228C228.404 16.672 228.236 17.3327 228.236 18.21ZM235.814 14.2944H237.313V18.0864L237.292 19.1016L237.238 20.2563H237.27L240.896 14.2944H242.888V22.147H241.406V18.3765C241.406 17.8716 241.438 17.1232 241.502 16.1313H241.459L237.818 22.147H235.814V14.2944ZM241.954 11.7432C241.886 12.4128 241.633 12.9015 241.196 13.2095C240.759 13.5138 240.129 13.666 239.306 13.666C238.457 13.666 237.829 13.5192 237.42 13.2256C237.016 12.932 236.788 12.4378 236.738 11.7432H238.205C238.23 12.112 238.321 12.3716 238.479 12.522C238.64 12.6688 238.926 12.7422 239.338 12.7422C239.7 12.7422 239.968 12.6616 240.144 12.5005C240.323 12.3358 240.432 12.0833 240.471 11.7432H241.954Z" fill="white"/>
<path d="M58.6172 29.2974H62.6162C64.4385 29.2974 65.7598 29.5581 66.5801 30.0796C67.4062 30.5952 67.8193 31.4185 67.8193 32.5493C67.8193 33.3169 67.6377 33.9468 67.2744 34.439C66.917 34.9312 66.4395 35.2271 65.8418 35.3267V35.4146C66.6562 35.5962 67.2422 35.936 67.5996 36.4341C67.9629 36.9321 68.1445 37.5942 68.1445 38.4204C68.1445 39.5923 67.7197 40.5063 66.8701 41.1626C66.0264 41.8188 64.8779 42.147 63.4248 42.147H58.6172V29.2974ZM61.3418 34.3862H62.9238C63.6621 34.3862 64.1953 34.272 64.5234 34.0435C64.8574 33.8149 65.0244 33.437 65.0244 32.9097C65.0244 32.4175 64.8428 32.0659 64.4795 31.855C64.1221 31.6382 63.5537 31.5298 62.7744 31.5298H61.3418V34.3862ZM61.3418 36.5483V39.897H63.1172C63.8672 39.897 64.4209 39.7534 64.7783 39.4663C65.1357 39.1792 65.3145 38.7397 65.3145 38.1479C65.3145 37.0815 64.5527 36.5483 63.0293 36.5483H61.3418ZM90.1833 42.147H87.0895L82.4313 35.6343V42.147H79.7067V29.2974H82.4313V35.52L87.0368 29.2974H89.9372L85.2526 35.4673L90.1833 42.147ZM105.624 35.7046C105.624 37.8315 105.096 39.4663 104.042 40.6089C102.987 41.7515 101.475 42.3228 99.5064 42.3228C97.5376 42.3228 96.0259 41.7515 94.9712 40.6089C93.9165 39.4663 93.3892 37.8257 93.3892 35.687C93.3892 33.5483 93.9165 31.9165 94.9712 30.7915C96.0318 29.6606 97.5493 29.0952 99.5239 29.0952C101.499 29.0952 103.007 29.6636 104.05 30.8003C105.099 31.937 105.624 33.5718 105.624 35.7046ZM96.2456 35.7046C96.2456 37.1401 96.5181 38.2212 97.063 38.9478C97.6079 39.6743 98.4224 40.0376 99.5064 40.0376C101.68 40.0376 102.767 38.5933 102.767 35.7046C102.767 32.8101 101.686 31.3628 99.5239 31.3628C98.44 31.3628 97.6226 31.729 97.0718 32.4614C96.521 33.188 96.2456 34.269 96.2456 35.7046ZM120.976 42.147H118.26V36.6011H113.171V42.147H110.447V29.2974H113.171V34.3335H118.26V29.2974H120.976V42.147ZM131.846 31.3804C130.821 31.3804 130.027 31.7671 129.464 32.5405C128.902 33.3081 128.62 34.3804 128.62 35.7573C128.62 38.6226 129.696 40.0552 131.846 40.0552C132.748 40.0552 133.841 39.8296 135.124 39.3784V41.6636C134.07 42.103 132.892 42.3228 131.591 42.3228C129.722 42.3228 128.292 41.7573 127.302 40.6265C126.312 39.4897 125.817 37.8608 125.817 35.7397C125.817 34.4038 126.06 33.2349 126.546 32.2329C127.032 31.2251 127.73 30.4546 128.638 29.9214C129.552 29.3823 130.621 29.1128 131.846 29.1128C133.094 29.1128 134.348 29.4146 135.608 30.0181L134.729 32.2329C134.248 32.0044 133.765 31.8052 133.279 31.6353C132.792 31.4653 132.315 31.3804 131.846 31.3804ZM144.983 42.147H142.259V31.5649H138.77V29.2974H148.473V31.5649H144.983V42.147ZM155.335 35.3442H156.231C157.069 35.3442 157.696 35.1802 158.112 34.8521C158.528 34.5181 158.736 34.0347 158.736 33.4019C158.736 32.7632 158.56 32.2915 158.209 31.9868C157.863 31.6821 157.318 31.5298 156.574 31.5298H155.335V35.3442ZM161.487 33.3052C161.487 34.688 161.054 35.7456 160.186 36.478C159.325 37.2104 158.098 37.5767 156.504 37.5767H155.335V42.147H152.61V29.2974H156.715C158.273 29.2974 159.457 29.6343 160.266 30.3081C161.08 30.9761 161.487 31.9751 161.487 33.3052ZM176.207 29.2974L172.234 38.3853C171.736 39.5278 171.267 40.3481 170.828 40.8462C170.394 41.3442 169.879 41.7163 169.281 41.9624C168.683 42.2026 167.957 42.3228 167.101 42.3228C166.369 42.3228 165.686 42.2349 165.053 42.0591V39.7212C165.569 39.9321 166.211 40.0376 166.978 40.0376C167.465 40.0376 167.857 39.9263 168.156 39.7036C168.455 39.4751 168.704 39.0825 168.903 38.5259L164.456 29.2974H167.339L170.503 36.4604H170.591L170.749 36.021L173.403 29.2974H176.207ZM190.469 42.147H187.376L182.717 35.6343V42.147H179.993V29.2974H182.717V35.52L187.323 29.2974H190.223L185.539 35.4673L190.469 42.147ZM199.204 42.147H196.479V31.5649H192.99V29.2974H202.693V31.5649H199.204V42.147ZM218.493 35.7046C218.493 37.8315 217.966 39.4663 216.911 40.6089C215.857 41.7515 214.345 42.3228 212.376 42.3228C210.407 42.3228 208.896 41.7515 207.841 40.6089C206.786 39.4663 206.259 37.8257 206.259 35.687C206.259 33.5483 206.786 31.9165 207.841 30.7915C208.902 29.6606 210.419 29.0952 212.394 29.0952C214.368 29.0952 215.877 29.6636 216.92 30.8003C217.969 31.937 218.493 33.5718 218.493 35.7046ZM209.115 35.7046C209.115 37.1401 209.388 38.2212 209.933 38.9478C210.478 39.6743 211.292 40.0376 212.376 40.0376C214.55 40.0376 215.637 38.5933 215.637 35.7046C215.637 32.8101 214.556 31.3628 212.394 31.3628C211.31 31.3628 210.492 31.729 209.942 32.4614C209.391 33.188 209.115 34.269 209.115 35.7046ZM226.041 35.3442H226.938C227.775 35.3442 228.402 35.1802 228.818 34.8521C229.234 34.5181 229.442 34.0347 229.442 33.4019C229.442 32.7632 229.267 32.2915 228.915 31.9868C228.569 31.6821 228.024 31.5298 227.28 31.5298H226.041V35.3442ZM232.193 33.3052C232.193 34.688 231.76 35.7456 230.893 36.478C230.031 37.2104 228.804 37.5767 227.21 37.5767H226.041V42.147H223.316V29.2974H227.421C228.98 29.2974 230.163 29.6343 230.972 30.3081C231.786 30.9761 232.193 31.9751 232.193 33.3052ZM244.18 42.147H236.779V29.2974H244.18V31.5298H239.504V34.3511H243.854V36.5835H239.504V39.897H244.18V42.147Z" fill="white"/>
<rect x="0.5" y="1.14697" width="259" height="53" rx="4.5" stroke="#6C6D71"/>
<path d="M39.5486 18.1652L31.7035 10.3201C30.7795 9.39604 29.2909 9.38651 28.3786 10.2988L20.0826 18.5947L29.6008 28.1129L32.6652 25.0485C33.6549 26.4034 35.6842 26.5822 36.8522 25.3199C37.9547 24.1422 37.6741 22.2645 36.4227 21.291L39.5486 18.1652Z" fill="#159CE4"/>
<path d="M26.8024 24.5607C28.0883 23.563 28.2991 21.6898 27.213 20.5372C26.005 19.2406 23.9878 19.4624 23.0232 20.7815L20.4595 18.2178L12.6628 26.0144C11.7427 26.9346 11.7425 28.4197 12.6624 29.3396L20.4572 37.1344L29.9167 27.675L26.8024 24.5607Z" fill="#F9BC35"/>
<path d="M20.4534 37.1311L28.2966 44.9744C29.2205 45.8982 30.7089 45.9076 31.6212 44.9953L39.9171 36.6993L30.4011 27.1834L27.3367 30.2477C26.3473 28.8932 24.3183 28.7146 23.1503 29.9769C22.0477 31.1546 22.3281 33.032 23.5792 34.0052L20.4534 37.1311Z" fill="#FD4E26"/>
<path d="M33.051 30.8018C31.7512 31.8116 31.5338 33.7017 32.6263 34.8616C33.8415 36.1664 35.877 35.9374 36.8534 34.6042L39.4329 37.1837L47.3181 29.2985C48.2486 28.3679 48.2527 26.8698 47.3272 25.9442L39.4845 18.1016L29.9176 27.6684L33.051 30.8018Z" fill="#08469C"/>
</g>
<defs>
<clipPath id="clip0">
<rect width="260" height="54" fill="white" transform="translate(0 0.646973)"/>
</clipPath>
</defs>
</svg>
